<svg width="24" height="25" viewBox="0 0 24 25" fill="none" xmlns="http://www.w3.org/2000/svg">
<path d="M17.9825 19.225C17.2838 18.2999 16.3798 17.5496 15.3417 17.0334C14.3036 16.5171 13.1599 16.249 12.0005 16.25C10.8411 16.249 9.69739 16.5171 8.65932 17.0334C7.62125 17.5496 6.71724 18.2999 6.0185 19.225M17.9825 19.225C19.346 18.0122 20.3076 16.4136 20.7417 14.6411C21.1758 12.8686 21.0608 11.0061 20.412 9.30049C19.7632 7.59488 18.6112 6.12679 17.1089 5.09091C15.6066 4.05503 13.8248 3.50031 12 3.50031C10.1752 3.50031 8.39343 4.05503 6.89111 5.09091C5.38878 6.12679 4.23683 7.59488 3.58804 9.30049C2.93924 11.0061 2.82425 12.8686 3.25832 14.6411C3.69239 16.4136 4.655 18.0122 6.0185 19.225M17.9825 19.225C16.3365 20.6932 14.2061 21.5032 12.0005 21.5C9.79453 21.5034 7.66474 20.6934 6.0185 19.225M15.0005 10.25C15.0005 11.0457 14.6844 11.8087 14.1218 12.3713C13.5592 12.9339 12.7962 13.25 12.0005 13.25C11.2049 13.25 10.4418 12.9339 9.87918 12.3713C9.31657 11.8087 9.0005 11.0457 9.0005 10.25C9.0005 9.45436 9.31657 8.6913 9.87918 8.12869C10.4418 7.56608 11.2049 7.25001 12.0005 7.25001C12.7962 7.25001 13.5592 7.56608 14.1218 8.12869C14.6844 8.6913 15.0005 9.45436 15.0005 10.25Z" stroke="white" stroke-width="1.5" stroke-linecap="round" stroke-linejoin="round"/>
</svg>
